<svg width="148" height="28" viewBox="0 0 148 28" fill="none" xmlns="http://www.w3.org/2000/svg">
<path d="M76.8111 12.7238L82.2747 12.5188L77.6902 27.6263H87.4932L92.076 12.5188L97.4167 12.7238L99.592 5.55095H78.9856L76.8111 12.7238ZM56.5133 16.6461C55.1423 23.7289 47.632 27.9759 39.4033 27.9759C31.1762 27.9759 25.3068 23.7305 26.6777 16.6461C28.0197 9.7063 35.6176 5.19977 43.8102 5.19977C52.0019 5.19977 57.8561 9.70791 56.5133 16.6461ZM36.528 16.7634C36.0419 19.281 37.7833 21.0087 40.7517 21.0087C43.7202 21.0087 46.1293 19.2818 46.6171 16.7634C47.0695 14.4217 45.517 12.461 42.4047 12.461C39.2916 12.4594 36.9813 14.4217 36.528 16.7634Z" fill="#BCBCBD"/>
<path d="M53.4668 25.9557C56.2641 27.2125 60.0522 27.9759 63.4514 27.9759C69.2822 27.9759 75.6531 25.3706 76.6728 20.1007C77.3969 16.3536 74.7442 14.5383 70.7408 13.7773L68.6024 13.3675C67.8792 13.2196 66.685 13.1039 66.8433 12.2826C67.0193 11.3754 68.3228 11.111 69.1818 11.111C71.2912 11.111 73.047 11.8431 74.5465 12.78L78.2864 7.13002C75.8925 5.81294 73.1861 5.19979 70.1091 5.19979C64.2421 5.19979 57.844 8.12726 56.8314 13.3675C56.1629 16.8221 59.0252 18.6663 62.745 19.2224L64.6568 19.5141C65.523 19.6628 66.7943 19.7488 66.6015 20.7436C66.4086 21.7384 64.8087 22.0607 63.8412 22.0607C61.5863 22.0607 59.652 21.1534 58.1148 20.0412L57.6768 19.719L53.4668 25.9557ZM118.674 6.10704C116.713 5.52123 114.485 5.19979 112.265 5.19979C104.36 5.19979 97.1748 10.3524 95.9284 16.7932C94.7094 23.0877 99.7752 27.9767 107.466 27.9767C109.219 27.9767 112.918 27.7131 114.613 27.0984L116.497 18.8431C114.678 20.1015 112.738 20.8923 110.484 20.8923C107.551 20.8923 105.373 19.0183 105.844 16.5899C106.308 14.1887 109.075 12.2866 112.007 12.2866C114.225 12.2866 115.994 13.3112 117.338 14.5134L118.674 6.10704ZM134.37 5.19979C126.179 5.19979 118.581 9.70632 117.237 16.6453C115.867 23.7289 121.736 27.9759 129.965 27.9759C138.191 27.9759 145.704 23.7305 147.074 16.6453C148.414 9.70793 142.561 5.19979 134.37 5.19979ZM132.965 12.4594C136.077 12.4594 137.631 14.4194 137.176 16.7618C136.69 19.2795 134.28 21.0072 131.31 21.0072C128.341 21.0072 126.601 19.2803 127.087 16.7618C127.541 14.4218 129.853 12.4594 132.965 12.4594ZM29.2041 1.15294C26.7572 0.444983 23.9808 0.0560303 21.2141 0.0560303C11.3532 0.0560303 2.39081 6.28385 0.837476 14.069C-0.680501 21.6774 5.6357 27.5853 15.2281 27.5853C17.4147 27.5853 22.0305 27.2671 24.1415 26.5254L26.4896 16.5449C24.2235 18.0676 21.8015 19.0231 18.9905 19.0231C15.3318 19.0231 12.6157 16.7578 13.2023 13.8191C13.7817 10.9181 17.2307 8.61666 20.8878 8.61666C23.6529 8.61666 25.8604 9.85578 27.5343 11.3063L29.2041 1.15294Z" fill="#BCBCBD"/>
</svg>
