<svg width="137" height="29" viewBox="0 0 137 29" fill="none" xmlns="http://www.w3.org/2000/svg">
<path d="M114.951 0.786871H110.201C109.933 0.786871 109.8 0.920749 109.8 1.1884V19.9883C109.8 20.925 109.499 21.6274 109.097 22.1629C108.696 22.6982 108.161 22.8318 107.491 22.8318C106.823 22.8318 106.254 22.5641 105.852 22.1629C105.451 21.6274 105.184 20.925 105.184 19.9883V1.1884C105.184 0.920749 104.916 0.786871 104.782 0.786871H99.9981C99.7305 0.786871 99.5968 0.920749 99.5968 1.1884V20.1223C99.5968 22.5642 100.132 24.8724 101.637 26.3776C103.109 27.8831 105.15 28.686 107.491 28.686C109.933 28.686 111.974 27.8832 113.345 26.3776C114.817 24.906 115.386 22.7317 115.386 20.1223V1.1884C115.52 1.05473 115.252 0.786871 114.951 0.786871V0.786871ZM133.183 14.1345C133.986 13.3314 135.491 11.4247 135.491 8.94934C135.491 6.07263 134.387 4.33307 133.551 3.36276C132.046 1.75708 130.038 0.920749 127.697 0.920749H120.203C119.902 0.920749 119.768 1.1884 119.768 1.32206V27.8831C119.768 28.1507 120.036 28.2846 120.203 28.2846H128.131C130.573 28.2846 132.882 27.3479 134.387 25.4077C135.19 24.3372 136.16 22.5306 136.16 19.8212C135.892 16.5764 133.885 14.6696 133.183 14.1345V14.1345ZM125.288 6.37334H127.73C128.399 6.37334 128.934 6.50701 129.336 7.04241C129.771 7.47722 129.905 8.14639 129.905 8.98262C129.905 9.81885 129.771 10.4543 129.336 11.0233C128.934 11.4246 128.399 11.6923 127.864 11.6923H125.422V6.37334H125.288ZM129.637 22.0289C129.235 22.5642 128.7 22.6981 127.864 22.6981H125.154V16.9441H127.864C128.533 16.9441 129.068 17.2451 129.47 17.6469C129.905 18.182 130.172 18.8509 130.172 19.6873C130.306 20.7911 130.072 21.4603 129.637 22.0289V22.0289ZM32.7597 16.4424C33.2949 16.0411 33.7298 15.7735 34.1312 15.2048C35.0678 14.1344 36.3055 12.2274 36.3055 9.21677C36.3055 6.33985 35.2016 4.46663 34.1312 3.36276C32.7597 1.75708 30.719 0.920749 28.4109 0.786871H20.5162C20.2485 0.786871 20.1147 1.05473 20.1147 1.1884V27.7161C20.1147 27.9836 20.3824 28.1174 20.5162 28.1174H25.2663C25.5339 28.1174 25.6678 27.8496 25.6678 27.7161V17.9144H27.307L30.2842 27.9836C30.2842 28.1174 30.5852 28.2511 30.7191 28.2511H35.7369C35.8707 28.2511 36.0045 28.1174 36.1383 28.1174C36.2721 28.1174 36.2721 27.8496 36.2721 27.7161L32.7597 16.4424ZM29.7489 11.5248C29.3475 12.0604 28.6784 12.3611 27.8421 12.3611H25.5338V6.37334H27.8421C28.6449 6.37334 29.3139 6.64099 29.7489 7.17618C30.2841 7.74508 30.4513 8.41404 30.4513 9.35075C30.4513 10.3208 30.3176 10.9896 29.7489 11.5248V11.5248ZM73.0025 14.1345C73.8388 13.3314 75.3108 11.4247 75.3108 8.94934C75.3108 6.07263 74.2403 4.33307 73.404 3.36276C71.8987 1.75708 69.8579 0.920749 67.5499 0.920749H60.0899C59.8223 0.920749 59.6885 1.1884 59.6885 1.32206V27.8831C59.6885 28.1507 59.9562 28.2846 60.0899 28.2846H67.9847C70.4267 28.2846 72.7349 27.3479 74.2736 25.4077C75.0766 24.3372 76.0467 22.5306 76.0467 19.8212C75.8795 16.5764 73.8388 14.6696 73.0025 14.1345V14.1345ZM65.1412 6.37334H67.5833C68.2523 6.37334 68.7876 6.50701 69.1891 7.04241C69.5904 7.47722 69.7244 8.14639 69.7244 8.98262C69.7244 9.81885 69.5904 10.4543 69.1891 11.0233C68.7875 11.4246 68.2523 11.6923 67.717 11.6923H65.2749V6.37334H65.1412ZM69.6238 22.0289C69.2226 22.5642 68.687 22.6981 67.8508 22.6981H65.1412V16.9441H67.8508C68.5198 16.9441 69.0551 17.2451 69.4565 17.6469C69.8578 18.182 70.159 18.8509 70.159 19.6873C70.1925 20.7911 70.0588 21.4603 69.6238 22.0289ZM8.3731 0.385559C5.93099 0.385559 3.8905 1.1884 2.51898 2.69358C1.04697 4.19898 0.51178 6.33985 0.51178 8.94923V20.2558C0.51178 22.6982 1.04697 25.006 2.51898 26.5116C4.02427 28.0171 6.06486 28.8199 8.3731 28.8199C10.815 28.8199 12.889 28.0172 14.2605 26.5116C15.7325 25.0396 16.2677 22.8652 16.2677 20.2558V14.0337C16.2677 13.7329 16.0001 13.4653 15.7325 13.4653H8.80791C8.50698 13.4653 8.23933 13.7329 8.23933 14.0337V18.6503C8.23933 18.9178 8.50698 19.1856 8.80791 19.1856H10.581V20.2894C10.581 21.2262 10.3133 22.0625 9.912 22.5978C9.51037 23.1331 8.9419 23.2667 8.27272 23.2667C7.60376 23.2667 7.06846 22.9992 6.63366 22.5978C6.23224 22.0625 5.9647 21.2263 5.9647 20.2894V9.11671C5.9647 8.14639 6.23224 7.31006 6.63366 6.80805C7.06857 6.27286 7.60376 6.13919 8.27272 6.13919C8.9419 6.13919 9.51047 6.40684 9.912 6.80805C10.3134 7.34334 10.581 8.14639 10.581 9.11671V10.1871C10.581 10.4544 10.8485 10.6218 10.9824 10.6218H15.7326C16.0002 10.6218 16.134 10.4544 16.134 10.1871V9.11671C16.134 6.67438 15.5989 4.36625 14.0936 2.86096C12.8891 1.1884 10.6812 0.385559 8.3731 0.385559ZM54.9384 0.786871H50.1882C49.9205 0.786871 49.7867 0.920749 49.7867 1.1884V19.9883C49.7867 20.925 49.4857 21.6274 49.0843 22.1629C48.6828 22.6982 48.1475 22.8318 47.4785 22.8318C46.8096 22.8318 46.2408 22.5641 45.8395 22.1629C45.438 21.6274 45.1705 20.925 45.1705 19.9883V1.1884C45.1705 0.920749 44.8694 0.786871 44.7356 0.786871H39.9854C39.7178 0.786871 39.584 0.920749 39.584 1.1884V20.1223C39.584 22.5642 40.1527 24.8724 41.6245 26.3776C43.1298 27.8831 45.1705 28.686 47.4786 28.686C49.9207 28.686 51.9947 27.8832 53.3328 26.3776C54.838 24.906 55.3732 22.7317 55.3732 20.1223V1.1884C55.3398 1.05473 55.206 0.786871 54.9384 0.786871ZM94.947 0.786871H90.1968C89.9293 0.786871 89.7955 1.05473 89.7955 1.1884V11.5248H85.0454V1.1884C85.0454 0.920749 84.7777 0.786871 84.6438 0.786871H79.8936C79.626 0.786871 79.4923 1.05473 79.4923 1.1884V27.7161C79.4923 27.9836 79.7599 28.1174 79.8936 28.1174H84.6438C84.9114 28.1174 85.0454 27.8496 85.0454 27.7161V17.1117H89.7955V27.7161C89.7955 27.9836 90.0632 28.1174 90.1968 28.1174H94.947C95.2147 28.1174 95.3486 27.8496 95.3486 27.7161V1.1884C95.3486 1.05473 95.2147 0.786871 94.947 0.786871V0.786871Z" fill="#BCBCBD"/>
</svg>
