<svg width="101" height="28" viewBox="0 0 101 28" fill="none" xmlns="http://www.w3.org/2000/svg">
<path fill-rule="evenodd" clip-rule="evenodd" d="M53.7285 27.2912H67.4772C69.5316 27.2912 71.2176 26.4482 72.587 24.7617C73.9039 23.1288 74.5889 21.1799 74.5889 18.9681C74.5889 14.4903 68.8472 11.3295 66.6337 11.3295H59.1012C58.5217 11.3295 58.0467 11.066 57.6787 10.645C57.3097 10.1705 57.0993 9.64408 57.0993 9.01159C57.0993 8.27413 57.3097 7.64217 57.6787 7.11518C58.1002 6.58873 58.6267 6.27276 59.2592 6.27276H73.3769V0.635502H58.9951C56.4137 0.635502 54.4113 1.42598 52.9889 2.95339C51.7255 4.37582 51.0925 6.27222 51.0925 8.53762C51.0925 10.75 51.7255 12.6994 52.9889 14.2788C54.4113 16.0172 56.0978 16.9137 58.1522 16.9137H66.8448C67.3707 16.9137 67.7927 17.0717 68.1081 17.4921C68.4771 17.9136 68.6351 18.4406 68.6351 19.0206C68.6351 19.7056 68.3716 20.3375 67.9501 20.8645C67.4762 21.3385 66.9492 21.602 66.2653 21.602H52.358L52.1475 21.233L46.9323 4.48132L46.6688 3.95434C45.4043 1.37296 43.2975 0.109054 40.4001 0.109054C38.8197 0.109054 37.3973 0.477513 36.1328 1.26799C34.8159 2.05794 33.9729 3.21688 33.4989 4.69234L26.4923 27.2381L32.8665 27.2917L39.2931 7.22123C39.4511 6.58874 39.8201 6.27276 40.2941 6.27276C40.5576 6.27276 40.768 6.37773 40.926 6.53625C41.084 6.74673 41.1895 6.95773 41.242 7.22123L47.7211 27.2917H53.7285V27.2912ZM6.31684 8.8536V27.2381H0.416626V6.85169C0.416626 4.21783 1.04912 2.37391 2.41853 1.26799C3.47197 0.477513 5.05239 0.0560303 7.26477 0.0560303C9.05567 0.0560303 10.5836 0.583019 11.953 1.58397C13.3224 2.58492 14.2179 3.95434 14.6924 5.64027L18.5377 19.1786L19.1702 21.0225C19.2226 21.3909 19.4337 21.6544 19.6441 21.8644C19.9076 22.0759 20.1706 22.1814 20.4871 22.0759C21.0141 22.0234 21.2776 21.7069 21.2776 21.233V0.688521H27.3358V20.9695C27.3358 23.2349 26.8093 24.9213 25.7029 26.1328C24.6494 27.3442 23.069 27.9767 20.9616 27.9767C19.1177 27.9767 17.5897 27.6077 16.3783 26.9757C14.9034 26.2383 13.9549 25.0793 13.5334 23.5508L9.10869 8.11614L8.79271 7.11518C8.68721 6.74672 8.47673 6.48323 8.21324 6.21974C7.94975 6.00873 7.63377 5.95625 7.31779 6.00873C7.00181 6.06175 6.79134 6.21974 6.58033 6.53572C6.40713 6.82151 6.31597 7.14947 6.31684 7.48365V8.8536ZM100.613 27.2912L93.7644 4.48132L93.501 3.95434C92.2365 1.37296 90.1296 0.109054 87.2323 0.109054C85.6519 0.109054 84.2294 0.477513 82.9655 1.26799C81.6475 2.05794 80.8056 3.21688 80.3306 4.69234L73.3244 27.2381L79.6986 27.2917L86.1253 7.22123C86.2833 6.58874 86.6523 6.27276 87.1262 6.27276C87.3897 6.27276 87.6002 6.37773 87.7582 6.53625C87.9172 6.74673 88.0217 6.95773 88.0752 7.22123L94.5544 27.2917H100.613V27.2912Z" fill="#BCBCBD"/>
</svg>
