<svg width="81" height="28" viewBox="0 0 81 28" fill="none" xmlns="http://www.w3.org/2000/svg">
<path d="M4.62664 19.9938C4.96647 20.8957 5.43696 21.6668 6.0382 22.3072C6.63943 22.9476 7.35172 23.4377 8.17505 23.7775C8.99847 24.1174 9.89373 24.2872 10.8609 24.2872C11.802 24.2872 12.6841 24.1108 13.5076 23.7578C14.331 23.4049 15.0498 22.9083 15.664 22.2679C16.2783 21.6275 16.7554 20.863 17.0952 19.9742C17.435 19.0855 17.6049 18.0923 17.6049 16.9944V0.0560303H21.7218V27.5023H17.6441V24.9537C16.7292 25.9208 15.6509 26.6658 14.4093 27.1887C13.1676 27.7114 11.8281 27.9728 10.3904 27.9728C8.92655 27.9728 7.5608 27.7179 6.29301 27.2082C5.0253 26.6985 3.92737 25.9732 2.99949 25.0321C2.07161 24.0911 1.33963 22.9607 0.803815 21.6406C0.267909 20.3206 0 18.8503 0 17.2296V0.0560303H4.11694V16.9944C4.11694 18.0923 4.28681 19.092 4.62664 19.9938ZM28.8183 0.0560303V10.0543C29.7332 9.13944 30.7919 8.41414 31.9943 7.87823C33.1966 7.34233 34.5036 7.07442 35.9151 7.07442C37.379 7.07442 38.7512 7.34884 40.0321 7.89776C41.3129 8.44667 42.4237 9.19167 43.3648 10.1327C44.3058 11.0738 45.0508 12.1847 45.5998 13.4655C46.1487 14.7464 46.4231 16.1056 46.4231 17.5433C46.4231 18.9809 46.1487 20.3336 45.5998 21.6013C45.0508 22.8691 44.3058 23.9735 43.3648 24.9144C42.4237 25.8555 41.3129 26.6005 40.0321 27.1494C38.7512 27.6983 37.3789 27.9727 35.9151 27.9727C34.5036 27.9727 33.1901 27.7048 31.9746 27.1689C30.7592 26.6331 29.6939 25.9077 28.7791 24.9928V27.5022H24.8582V0.0560303H28.8183ZM29.2692 20.2486C29.622 21.0852 30.1122 21.8171 30.7396 22.4444C31.3669 23.0718 32.0988 23.5685 32.9352 23.9344C33.7718 24.3003 34.6735 24.4833 35.6407 24.4833C36.5818 24.4833 37.4704 24.3003 38.3069 23.9344C39.1433 23.5685 39.8686 23.0718 40.483 22.4444C41.0973 21.8172 41.5874 21.0852 41.9533 20.2486C42.3193 19.4122 42.5022 18.5105 42.5022 17.5433C42.5022 16.5761 42.3193 15.6677 41.9533 14.8182C41.5874 13.9687 41.0973 13.2303 40.483 12.6029C39.8687 11.9757 39.1434 11.4855 38.3069 11.1326C37.4703 10.7798 36.5817 10.6032 35.6407 10.6032C34.6997 10.6032 33.811 10.7797 32.9745 11.1326C32.1381 11.4856 31.4062 11.9757 30.7788 12.6029C30.1515 13.2303 29.6548 13.9687 29.2889 14.8182C28.9229 15.6677 28.74 16.5761 28.74 17.5433C28.7399 18.5105 28.9163 19.4122 29.2692 20.2486ZM48.6576 13.5048C49.1804 12.2501 49.8993 11.1457 50.8141 10.1916C51.7289 9.23756 52.8138 8.48606 54.0685 7.93714C55.3232 7.38822 56.6824 7.11381 58.1462 7.11381C59.5839 7.11381 60.917 7.37521 62.1456 7.89793C63.3741 8.42073 64.4327 9.14612 65.3215 10.0741C66.2102 11.002 66.903 12.0999 67.3995 13.3676C67.8962 14.6354 68.1445 16.0142 68.1445 17.5042V18.7981H51.8728C52.0036 19.6085 52.265 20.36 52.657 21.0526C53.0492 21.7452 53.5392 22.3465 54.1273 22.8562C54.7154 23.366 55.382 23.7646 56.127 24.052C56.872 24.3396 57.6626 24.4834 58.4991 24.4834C60.8779 24.4834 62.7991 23.5031 64.2629 21.5426L67.1252 23.6599C66.1319 24.993 64.9034 26.0386 63.4396 26.7966C61.9757 27.5546 60.329 27.9337 58.4992 27.9337C57.0092 27.9337 55.6174 27.6722 54.3235 27.1495C53.0296 26.6268 51.9056 25.8948 50.9515 24.9537C49.9974 24.0127 49.2459 22.9083 48.697 21.6406C48.1481 20.3729 47.8736 18.994 47.8736 17.5041C47.8734 16.0926 48.1349 14.7595 48.6576 13.5048ZM54.1665 11.956C53.0556 12.8839 52.3172 14.119 51.9512 15.6612H64.1453C63.8054 14.119 63.0801 12.8839 61.9691 11.956C60.8582 11.0281 59.5578 10.5641 58.0679 10.5641C56.5779 10.5641 55.2775 11.0281 54.1665 11.956ZM75.5548 12.4068C74.7183 13.3217 74.3001 14.5633 74.3001 16.1317V27.5024H70.3399V7.50578H74.2608V9.97596C74.7575 9.16564 75.4044 8.52519 76.2016 8.0547C76.9989 7.58412 77.9464 7.34884 79.0443 7.34884H80.4166V11.0345H78.7699C77.4629 11.0346 76.3912 11.492 75.5548 12.4068Z" fill="#BCBCBD"/>
</svg>
