<svg width="125" height="29" viewBox="0 0 125 29" fill="none" xmlns="http://www.w3.org/2000/svg">
<path fill-rule="evenodd" clip-rule="evenodd" d="M101.423 9.31145C101.901 10.1348 102.051 11.0638 102.105 12.1122L102.175 13.5083V23.2805L102.245 24.6751C102.383 26.9583 104.061 28.6489 106.365 28.7948L107.759 28.8646V13.5083L107.829 12.1122C107.884 11.0767 108.035 10.1267 108.517 9.30098C109.486 7.64249 111.284 6.52811 113.344 6.52811C115.41 6.52811 117.214 7.65052 118.18 9.31878C118.655 10.1407 118.803 11.0893 118.858 12.1122L118.928 13.5069V23.2805L118.997 24.6751C119.142 26.9716 120.81 28.6611 123.117 28.7948L124.512 28.8646V12.1122C124.512 5.94422 119.512 0.943983 113.344 0.943983C110.008 0.943983 107.014 2.40633 104.967 4.72479C102.921 2.40633 99.927 0.943983 96.5911 0.943983C94.3615 0.940493 92.1823 1.60747 90.3366 2.85829C89.2505 1.65003 86.8189 0.943983 85.4229 0.943983V28.8646L86.8189 28.7948C89.1506 28.6416 90.8461 26.9946 90.9372 24.6772L91.007 23.2805V13.5083L91.0768 12.1122C91.1358 11.0621 91.282 10.1309 91.7619 9.30656C92.7294 7.64493 94.5299 6.52811 96.5911 6.52811C98.6545 6.52811 100.456 7.64703 101.423 9.31145ZM79.9379 5.03296C85.3897 10.4848 85.3897 19.3238 79.9379 24.7756C74.486 30.2275 65.647 30.2275 60.1952 24.7756C54.7433 19.3238 54.7433 10.4848 60.1952 5.03296C62.9189 2.3093 66.4878 0.946077 70.0578 0.943983C73.6453 0.946077 77.2142 2.3093 79.9379 5.03296ZM75.9895 8.98129C79.2604 12.2525 79.2604 17.5561 75.9895 20.8273C72.7183 24.0982 67.4148 24.0982 64.1439 20.8273C60.8726 17.5561 60.8726 12.2525 64.1439 8.98129C67.4148 5.71038 72.7183 5.71038 75.9895 8.98129ZM40.7586 0.943983C44.3286 0.946077 47.8975 2.3093 50.6212 5.03296C56.0731 10.4848 56.0731 19.3238 50.6212 24.7756C45.1694 30.2275 36.3304 30.2275 30.8785 24.7756C25.4267 19.3238 25.4267 10.4848 30.8785 5.03296C33.6022 2.3093 37.1711 0.946077 40.7411 0.943983H40.7586ZM46.6729 8.98129C49.9438 12.2525 49.9438 17.5561 46.6729 20.8273C43.4016 24.0982 38.0981 24.0982 34.8269 20.8273C31.556 17.5561 31.556 12.2525 34.8269 8.98129C38.0981 5.71038 43.4016 5.71038 46.6729 8.98129ZM5.84908 28.7948C3.53062 28.6423 1.86864 26.9765 1.73079 24.6751L1.66099 23.2805L18.4134 6.52811H5.84908L4.4513 6.45831C2.16809 6.32638 0.515541 4.60996 0.334755 2.33862L0.264954 0.943983L21.2054 0.945379L22.6015 1.01378C24.914 1.13594 26.6091 2.81711 26.7198 5.13382L26.7896 6.52811L10.0372 23.2805H22.6015L23.9975 23.3503C26.3013 23.4944 27.9291 25.1714 28.1158 27.47L28.1856 28.8646H7.24511L5.84908 28.7948Z" fill="#BCBCBD"/>
</svg>
